<?xml version="1.0" standalone="no"?>
<!DOCTYPE svg PUBLIC "-//W3C//DTD SVG 20010904//EN"
 "http://www.w3.org/TR/2001/REC-SVG-20010904/DTD/svg10.dtd">
<svg version="1.0" xmlns="http://www.w3.org/2000/svg"
 width="383.000000pt" height="383.000000pt" viewBox="0 0 383.000000 383.000000"
 preserveAspectRatio="xMidYMid meet">
<metadata>
Created by potrace 1.11, written by Peter Selinger 2001-2013
</metadata>
<g transform="translate(0.000000,383.000000) scale(0.100000,-0.100000)"
fill="#000000" stroke="none">
<path d="M1870 2777 c-3 -3 -23 -7 -45 -11 -89 -12 -223 -72 -256 -114 -10
-14 -19 -21 -19 -17 0 5 -25 -16 -55 -46 -30 -30 -55 -61 -55 -70 0 -9 -10
-24 -22 -33 -13 -9 -16 -14 -8 -10 11 6 11 2 -2 -13 -10 -11 -18 -25 -18 -31
0 -7 -5 -12 -10 -12 -6 0 -9 -3 -8 -7 3 -12 -23 -86 -36 -102 -9 -12 -8 -13 3
-6 10 6 12 4 6 -6 -12 -18 -15 -39 -18 -136 -1 -46 1 -83 5 -83 4 0 5 -9 3
-20 -2 -11 0 -22 6 -25 5 -4 7 -17 5 -31 -3 -14 -1 -22 5 -19 5 4 10 -1 10 -9
1 -16 4 -28 9 -43 1 -5 2 -11 1 -15 0 -5 4 -8 11 -8 6 0 8 -3 5 -7 -4 -3 4
-21 18 -39 14 -18 25 -37 25 -43 0 -5 8 -15 18 -20 9 -6 13 -11 8 -11 -5 0 7
-15 26 -34 20 -19 33 -37 30 -40 -3 -3 2 -6 11 -6 9 0 20 -6 24 -14 14 -23
102 -78 114 -70 7 4 9 3 6 -3 -4 -7 28 -22 81 -39 121 -40 250 -40 367 0 44
15 87 34 96 42 9 8 19 11 22 7 4 -3 7 -1 7 5 0 6 9 14 20 17 20 6 149 125 137
125 -7 0 16 31 48 63 11 11 14 17 7 13 -10 -6 -10 -2 -1 18 7 14 15 23 19 21
4 -2 7 1 7 8 0 7 8 30 18 52 10 22 19 49 21 60 1 11 6 36 9 55 10 57 12 171 3
176 -4 3 -6 16 -4 30 3 13 0 24 -6 24 -6 0 -8 9 -5 20 3 11 1 20 -5 20 -5 0
-6 5 -3 10 3 6 1 10 -6 10 -7 0 -9 3 -6 7 4 3 2 12 -4 20 -6 7 -8 13 -4 13 4
0 2 7 -5 15 -7 8 -10 15 -6 15 3 0 -3 9 -14 20 -12 12 -18 25 -15 30 4 6 1 10
-4 10 -6 0 -11 4 -11 10 0 40 -211 224 -259 225 -3 0 -10 3 -16 7 -40 25 -269
61 -285 45z m217 -113 c61 -21 120 -50 159 -80 17 -13 35 -20 39 -16 3 4 5 0
3 -8 -1 -8 3 -14 10 -12 6 1 12 -3 12 -10 0 -7 9 -21 20 -33 38 -40 55 -62 58
-76 2 -8 8 -16 13 -17 5 -2 7 -8 3 -13 -3 -5 0 -9 6 -9 6 0 8 -4 5 -10 -3 -5
-2 -10 4 -10 6 0 8 -7 5 -15 -4 -8 -1 -15 5 -15 6 0 10 -3 10 -7 -1 -5 -1 -10
1 -13 14 -38 18 -234 6 -280 -4 -14 -9 -32 -11 -40 -2 -8 -4 -17 -5 -20 -1 -3
-2 -8 -1 -12 0 -5 -4 -8 -9 -8 -6 0 -10 -9 -10 -20 0 -11 -5 -20 -12 -20 -6 0
-9 -3 -5 -6 3 -3 -1 -13 -9 -22 -8 -10 -13 -19 -12 -22 2 -3 -13 -21 -32 -39
-19 -18 -29 -29 -21 -25 9 5 12 3 7 -4 -4 -7 -14 -12 -22 -12 -9 0 -12 -5 -8
-12 4 -7 4 -10 -1 -6 -4 4 -21 -4 -38 -18 -52 -44 -142 -83 -232 -101 -75 -14
-100 -15 -169 -5 -100 14 -224 72 -286 134 -24 24 -40 37 -35 29 5 -10 4 -12
-4 -7 -6 4 -9 11 -6 16 3 5 -4 15 -15 23 -11 7 -17 17 -13 20 3 4 1 7 -6 7 -7
0 -10 4 -7 8 3 5 -3 14 -14 22 -10 7 -16 19 -13 27 3 7 0 13 -7 13 -6 0 -8 5
-5 10 3 6 1 10 -5 10 -6 0 -8 5 -5 10 3 6 1 10 -5 10 -7 0 -10 7 -7 15 4 8 2
17 -4 21 -5 3 -7 14 -4 25 4 10 2 19 -3 19 -5 0 -7 47 -6 108 4 126 6 142 16
142 4 0 5 7 2 15 -4 8 -1 15 5 15 6 0 8 7 5 15 -4 8 -1 15 6 15 6 0 8 5 5 10
-3 6 -1 10 6 10 7 0 9 3 6 6 -4 4 2 19 13 34 11 15 16 30 12 34 -4 4 0 6 8 4
8 -1 14 3 13 10 -2 6 1 12 7 12 5 0 16 12 24 28 8 15 15 23 16 19 0 -4 6 -2
14 5 8 7 12 16 9 21 -2 4 3 7 11 7 8 0 19 7 24 16 5 9 11 15 13 14 2 -1 38 15
79 34 41 20 100 40 130 45 71 13 197 5 257 -15z"/>
<path d="M1830 2623 c-86 -21 -199 -81 -183 -96 3 -4 0 -7 -8 -7 -21 0 -119
-121 -119 -146 0 -8 -5 -14 -12 -14 -6 0 -9 -3 -6 -6 4 -3 0 -20 -7 -39 -8
-18 -11 -35 -8 -39 4 -3 1 -6 -5 -6 -6 0 -9 -7 -6 -15 3 -8 2 -20 -2 -27 -11
-17 -11 -121 -1 -129 5 -3 9 -22 10 -42 1 -20 6 -37 11 -37 5 0 6 -3 3 -7 -4
-3 0 -17 8 -30 9 -13 12 -23 8 -23 -5 0 -3 -4 4 -8 6 -4 13 -14 15 -21 3 -16
33 -52 89 -111 89 -92 234 -138 372 -119 70 9 169 48 161 61 -4 7 -2 8 4 4 6
-3 23 6 38 21 14 16 23 21 19 13 -5 -8 5 -1 21 15 16 17 28 33 27 37 -2 4 6 9
17 13 11 4 18 10 15 15 -3 5 3 18 15 30 11 11 17 20 13 20 -4 0 2 7 13 16 10
8 13 13 7 9 -9 -4 -11 -1 -7 9 3 9 11 13 17 9 6 -3 7 -1 3 6 -4 6 -2 18 4 26
7 8 9 15 6 15 -4 0 -2 8 3 18 17 33 34 185 19 176 -4 -2 -5 11 -4 31 3 23 0
33 -7 28 -6 -4 -8 0 -4 10 4 10 2 17 -4 17 -6 0 -9 9 -6 20 3 11 2 20 -2 20
-9 0 -35 51 -33 63 1 4 -3 7 -10 7 -6 0 -8 3 -5 6 4 4 -3 15 -15 25 -11 11
-18 19 -15 19 3 0 -4 11 -17 25 -13 14 -29 25 -35 25 -7 0 -10 4 -7 8 8 13
-94 74 -158 94 -78 24 -168 29 -236 11z"/>
<path d="M2723 2728 c-28 -32 -46 -67 -40 -83 3 -7 2 -16 -3 -21 -5 -5 -11
-28 -15 -51 -3 -23 -8 -57 -11 -75 -3 -18 -6 -43 -7 -55 0 -13 -3 -23 -6 -23
-4 0 -7 -15 -7 -33 -1 -17 -5 -52 -8 -77 -4 -25 -8 -58 -10 -73 -3 -27 13 -54
61 -105 10 -10 13 -73 13 -248 0 -191 3 -241 15 -264 16 -30 45 -43 80 -36 11
3 24 5 28 5 5 1 5 6 2 11 -3 6 -2 10 3 10 24 0 27 74 26 555 -1 281 -3 510 -4
510 -1 0 -3 8 -5 17 -9 50 -79 72 -112 36z"/>
<path d="M1115 2670 c-4 -6 -8 -63 -10 -128 -2 -64 -4 -120 -4 -123 -2 -10
-51 -17 -51 -8 0 5 -6 9 -14 9 -9 0 -12 9 -10 28 11 91 14 211 5 216 -20 13
-25 -6 -35 -142 -3 -40 -8 -77 -11 -82 -3 -5 -1 -11 4 -15 5 -3 8 -14 6 -25
-2 -11 0 -20 4 -20 4 0 8 -6 9 -12 1 -27 12 -61 22 -73 6 -7 10 -17 9 -21 -1
-5 0 -11 1 -14 9 -24 11 -82 11 -330 1 -219 4 -291 15 -311 23 -46 78 -53 115
-15 l24 25 1 299 c0 164 4 304 8 310 4 7 4 17 0 24 -5 7 -3 8 6 3 10 -6 12 -4
7 8 -3 10 -3 17 2 17 4 0 8 7 9 15 1 8 3 22 4 30 1 8 4 15 8 15 9 0 13 39 11
130 -2 138 -5 175 -16 182 -15 11 -27 10 -20 -2 3 -5 2 -10 -3 -10 -6 0 -7
-14 -3 -32 3 -18 6 -71 6 -118 l0 -85 -35 0 -35 0 -3 120 c-1 66 -5 126 -7
133 -5 15 -21 16 -30 2z"/>
<path d="M1207 1335 c-38 -13 -86 -56 -88 -78 0 -7 -3 -25 -5 -41 -3 -16 -2
-36 2 -45 4 -9 8 -18 8 -21 4 -16 52 -60 62 -56 7 3 14 1 16 -5 4 -13 78 -14
109 -1 21 8 26 17 25 44 -1 18 6 38 14 45 12 10 5 12 -40 13 -52 0 -53 -1 -32
-16 30 -21 29 -61 -2 -75 -31 -15 -85 11 -109 51 -29 49 -23 131 12 157 21 16
83 16 116 1 22 -10 28 -9 35 2 5 8 6 18 1 23 -14 14 -86 15 -124 2z"/>
<path d="M1484 1330 c-67 -34 -92 -114 -58 -186 53 -111 234 -79 251 44 15
115 -91 193 -193 142z m112 -35 c12 -13 25 -21 29 -17 4 4 6 3 4 -3 -1 -5 1
-23 6 -39 12 -45 12 -69 -2 -92 -7 -11 -10 -24 -6 -28 5 -4 3 -6 -2 -5 -6 2
-19 -2 -30 -8 -18 -9 -36 -9 -76 -1 -20 5 -49 37 -49 54 0 8 -4 13 -8 10 -8
-5 -14 21 -14 64 0 37 5 53 22 68 11 10 11 12 1 6 -9 -5 -12 -3 -7 5 4 6 11 9
15 7 4 -3 13 0 21 5 22 14 72 0 96 -26z"/>
<path d="M186 1325 c-3 -8 -1 -15 3 -15 5 0 11 7 15 15 3 8 1 15 -3 15 -5 0
-11 -7 -15 -15z"/>
<path d="M226 1332 c-3 -5 1 -9 9 -9 8 0 12 4 9 9 -3 4 -7 8 -9 8 -2 0 -6 -4
-9 -8z"/>
<path d="M283 1325 c-9 -25 -8 -235 2 -239 26 -9 30 10 29 122 -1 76 2 119 10
124 6 4 0 6 -13 5 -13 -1 -25 -6 -28 -12z"/>
<path d="M344 1329 c-2 -4 7 -6 22 -3 17 3 23 1 19 -7 -6 -8 -2 -8 14 0 11 7
21 13 21 14 0 6 -72 2 -76 -4z"/>
<path d="M466 1328 c3 -5 9 -6 14 -3 4 3 10 -1 12 -8 5 -15 3 -197 -3 -217 -2
-9 4 -15 17 -16 19 -1 21 4 19 57 -2 64 -7 60 70 63 61 3 73 -7 73 -59 0 -25
-4 -45 -9 -45 -5 0 -9 -3 -9 -8 0 -4 18 -8 41 -8 24 -1 35 2 27 7 -9 6 -13 40
-14 119 -1 92 1 112 15 120 11 6 -1 8 -36 7 -40 -2 -48 -4 -34 -12 21 -13 28
-87 9 -101 -7 -6 -40 -10 -73 -10 l-59 1 -2 57 c-1 32 2 55 7 53 4 -3 10 -2
13 3 2 4 -15 8 -39 8 -24 0 -41 -4 -39 -8z"/>
<path d="M797 1324 c13 -9 17 -32 17 -117 1 -58 -2 -103 -5 -101 -4 2 -9 -2
-12 -9 -8 -20 170 -17 183 3 14 22 12 38 -3 19 -7 -9 -19 -16 -27 -17 -105
-10 -106 -9 -104 46 1 26 2 50 3 54 1 3 16 6 35 5 19 0 33 -5 30 -9 -9 -13 4
-9 20 8 19 19 22 42 4 26 -14 -10 -39 -15 -73 -13 -17 1 -20 8 -20 50 0 27 2
48 5 46 3 -2 10 3 16 9 9 10 1 13 -36 12 -40 0 -46 -2 -33 -12z"/>
<path d="M890 1330 c0 -4 8 -7 18 -7 35 0 42 -3 42 -20 0 -21 9 -12 14 14 4
17 -1 20 -35 20 -21 0 -39 -3 -39 -7z"/>
<path d="M1738 1322 c16 -16 19 -34 18 -116 -1 -84 -4 -100 -21 -112 -17 -12
-7 -14 83 -14 90 0 102 2 112 19 18 34 11 42 -18 21 -21 -15 -40 -20 -68 -18
l-39 3 -3 105 c-2 90 0 107 15 117 14 11 8 13 -40 13 -55 0 -56 -1 -39 -18z"/>
<path d="M1986 1326 c19 -14 22 -26 23 -110 2 -84 -1 -98 -19 -116 l-20 -20
90 0 c62 0 90 4 90 12 0 6 3 8 6 5 13 -12 44 14 65 55 28 55 20 114 -22 154
-29 28 -35 29 -132 32 -94 3 -100 2 -81 -12z m160 -16 c6 -6 14 -8 17 -5 4 3
5 2 2 -2 -3 -3 3 -12 13 -20 10 -9 11 -12 2 -7 -12 6 -12 4 1 -12 12 -13 16
-36 14 -76 -2 -55 -14 -78 -45 -87 -21 -6 -90 -4 -97 2 -3 4 -6 52 -7 108 -1
80 2 103 14 109 17 10 69 4 86 -10z"/>
<path d="M2365 1326 c16 -12 19 -28 20 -112 1 -82 -1 -100 -17 -116 -17 -17
-16 -18 45 -17 47 0 57 2 40 9 -13 5 -24 19 -24 30 -1 11 -2 28 -3 38 -1 12 8
18 29 20 82 7 115 32 115 86 0 57 -34 76 -138 76 -76 0 -84 -2 -67 -14z m141
-9 c12 0 15 -14 17 -69 1 -45 0 -47 -44 -52 -52 -5 -56 0 -54 59 3 67 10 79
44 70 14 -4 31 -8 37 -8z"/>
<path d="M2633 1329 c14 -9 17 -26 17 -120 0 -104 -1 -110 -22 -119 -16 -6 5
-9 72 -9 92 -1 135 8 111 23 -6 4 -16 4 -23 0 -17 -11 -70 -13 -87 -4 -11 6
-14 31 -13 111 1 86 4 106 18 116 15 11 10 13 -37 13 -41 -1 -50 -3 -36 -11z"/>
<path d="M2985 1330 c-3 -5 -4 -10 0 -10 3 0 -1 -13 -10 -30 -9 -17 -11 -30
-5 -30 5 0 10 5 10 10 0 22 18 8 30 -22 6 -18 16 -41 21 -50 13 -25 12 -28
-11 -28 -11 0 -20 -4 -20 -9 0 -5 6 -9 13 -8 28 1 47 -3 46 -10 -1 -5 0 -11 1
-15 7 -22 4 -34 -10 -39 -8 -4 6 -6 33 -5 37 1 44 3 32 12 -8 6 -12 14 -8 17
3 4 1 7 -5 7 -7 0 -12 9 -12 20 0 11 -5 20 -12 20 -6 0 -9 3 -5 6 3 4 -2 23
-13 44 -11 21 -16 40 -13 44 4 3 1 6 -6 6 -7 0 -9 5 -6 10 3 6 1 10 -4 10 -6
0 -10 3 -9 8 3 13 -13 52 -22 52 -5 0 -12 -4 -15 -10z"/>
<path d="M3181 1332 c-6 -2 -11 -11 -11 -20 0 -15 2 -15 10 -2 5 8 10 11 10 6
0 -5 6 -4 13 1 6 5 19 9 27 8 8 -1 22 -3 30 -3 13 -2 16 -20 15 -113 -1 -76
-5 -113 -13 -118 -7 -4 5 -7 28 -7 31 0 38 3 28 11 -10 7 -14 39 -13 118 0 59
3 108 7 108 35 6 56 4 74 -7 17 -10 21 -10 21 2 0 8 -3 15 -6 15 -16 3 -211 4
-220 1z"/>
<path d="M3474 1328 c-2 -4 0 -9 5 -13 6 -3 9 -54 8 -119 -2 -97 0 -113 13
-111 8 2 17 4 20 4 3 1 5 57 5 125 0 123 0 124 -23 122 -13 0 -26 -4 -28 -8z"/>
<path d="M3545 1330 c-3 -6 1 -7 9 -4 18 7 21 14 7 14 -6 0 -13 -4 -16 -10z"/>
<path d="M3610 1333 c0 -3 6 -11 14 -19 13 -12 15 -12 13 4 -1 15 -27 29 -27
15z"/>
<path d="M2944 1228 c-5 -13 -9 -26 -10 -30 -1 -5 -3 -11 -4 -15 -1 -5 -2 -11
-1 -15 0 -5 -4 -8 -10 -8 -5 0 -7 -4 -4 -10 3 -5 2 -10 -3 -10 -6 0 -13 -11
-16 -24 -3 -14 -14 -26 -24 -29 -9 -2 3 -4 27 -4 27 -1 38 2 30 8 -32 19 -4
68 36 63 14 -1 25 2 25 8 0 5 -10 8 -22 6 -18 -2 -22 1 -20 17 4 29 7 39 15
53 5 6 4 12 -2 12 -5 0 -13 -10 -17 -22z"/>
<path d="M2810 1120 c0 -5 5 -10 10 -10 6 0 10 5 10 10 0 6 -4 10 -10 10 -5 0
-10 -4 -10 -10z"/>
<path d="M3637 1106 c-10 -8 -14 -16 -10 -19 5 -3 14 3 21 14 14 22 13 23 -11
5z"/>
</g>
</svg>
